<svg xmlns="http://www.w3.org/2000/svg" x="0px" y="0px" width="96" height="96" viewBox="0,0,256,256"
style="fill:#000000;">
<g fill="#ffffff" fill-rule="nonzero" stroke="none" stroke-width="1" stroke-linecap="butt" stroke-linejoin="miter" stroke-miterlimit="10" stroke-dasharray="" stroke-dashoffset="0" font-family="none" font-weight="none" font-size="none" text-anchor="none" style="mix-blend-mode: normal"><g transform="scale(10.66667,10.66667)"><path d="M8.23633,3.38867c-0.31784,-0.03792 -0.64403,0.00109 -0.95117,0.11914c-0.91893,0.35154 -2.11714,0.90032 -3.16406,1.74609l-0.02734,0.02148l-0.02539,0.02148c-0.46449,0.43059 -0.71955,0.94708 -1.04492,1.6543c-0.32537,0.70722 -0.65341,1.57996 -0.95117,2.5625c-0.59552,1.96508 -1.07227,4.35658 -1.07227,6.65039c0,0.24003 0.06291,0.48955 0.1875,0.70898c0.80619,1.4231 2.20007,2.21613 3.44141,2.69141c1.23124,0.47141 2.27487,0.63124 2.87109,0.65234c0.01943,0.00068 0.06864,0.00781 0.07031,0.00781c0.40759,0 0.93696,-0.15009 1.23438,-0.71289l0.92188,-1.74414c1.52646,0.26728 2.97163,0.26351 4.53906,-0.01562l0.92773,1.75586c0.29834,0.56914 0.83263,0.71484 1.23633,0.71484c0.0015,0 0.0478,-0.00526 0.06445,-0.00586c0.59627,-0.02055 1.64318,-0.18177 2.87695,-0.6543c1.23982,-0.47484 2.63133,-1.26599 3.4375,-2.68555c0.12865,-0.22324 0.19141,-0.47399 0.19141,-0.71289c0,-2.29381 -0.47763,-4.68647 -1.07617,-6.6543c-0.29927,-0.98391 -0.62819,-1.86004 -0.95703,-2.57031c-0.32884,-0.71027 -0.59347,-1.23162 -1.05859,-1.66211l-0.02539,-0.02148l-0.02539,-0.02148c-1.03597,-0.8375 -2.22846,-1.38005 -3.14453,-1.72852c-0.61265,-0.23348 -1.30371,-0.15052 -1.8457,0.22266c-0.41855,0.28784 -0.56043,0.78584 -0.66992,1.27148h-4.39453c-0.10992,-0.48522 -0.25088,-0.98368 -0.66797,-1.27148c-0.27112,-0.18709 -0.5806,-0.30193 -0.89844,-0.33984zM8,5.375c0,0.88606 0.73894,1.625 1.625,1.625h4.74805c0.88486,0 1.62588,-0.74035 1.62695,-1.625h0.00195c0.78637,0.29913 1.79433,0.78292 2.56055,1.39258c0.01765,0.02193 0.31498,0.42224 0.58789,1.01172c0.27885,0.60229 0.58339,1.40516 0.85938,2.3125c0.53635,1.76334 0.93908,3.93451 0.96289,5.90039c-0.48193,0.75095 -1.37003,1.34067 -2.31641,1.70312c-0.85185,0.32625 -1.55855,0.41087 -1.91992,0.45117l-0.46289,-0.87695c0.34322,-0.10071 0.68416,-0.19962 1.04687,-0.32227c0.34421,-0.10993 0.60236,-0.39699 0.67528,-0.7509c0.07291,-0.35391 -0.05075,-0.71963 -0.32349,-0.95666c-0.27273,-0.23703 -0.65212,-0.30851 -0.99241,-0.18698c-3.83009,1.29516 -5.7146,1.29649 -9.3457,0.00586c-0.12536,-0.04689 -0.25885,-0.06815 -0.39258,-0.0625c-0.47946,0.02305 -0.87493,0.38349 -0.94221,0.85876c-0.06728,0.47528 0.2126,0.93132 0.66682,1.08655c0.36388,0.12934 0.70903,0.2348 1.05469,0.33984l-0.45703,0.86523c-0.36114,-0.04025 -1.0681,-0.12503 -1.91992,-0.45117c-0.94635,-0.36234 -1.83399,-0.94965 -2.31641,-1.70117c0.02357,-1.96639 0.42488,-4.13796 0.95898,-5.90039c0.27474,-0.90658 0.57739,-1.70645 0.85352,-2.30664c0.26979,-0.5864 0.56723,-0.98573 0.57617,-1c0.78065,-0.62062 1.79486,-1.11022 2.58398,-1.41211zM9.03906,9.99609c-0.829,0 -1.5,0.89309 -1.5,1.99609c0,1.103 0.671,1.99609 1.5,1.99609c0.829,0 1.5,-0.89309 1.5,-1.99609c-0.018,-1.103 -0.668,-2.10609 -1.5,-1.99609zM14.99609,10.01172c-0.82843,0 -1.5,0.89543 -1.5,2c0,1.10457 0.67157,2 1.5,2c0.82843,0 1.5,-0.89543 1.5,-2c0,-1.10457 -0.67157,-2 -1.5,-2z"></path></g></g>
</svg>