<svg xmlns="http://www.w3.org/2000/svg" x="0px" y="0px" width="96" height="96" viewBox="0,0,256,256"
style="fill:#000000;">
<g fill="#ffffff" fill-rule="nonzero" stroke="none" stroke-width="1" stroke-linecap="butt" stroke-linejoin="miter" stroke-miterlimit="10" stroke-dasharray="" stroke-dashoffset="0" font-family="none" font-weight="none" font-size="none" text-anchor="none" style="mix-blend-mode: normal"><g transform="scale(10.66667,10.66667)"><path d="M20.57227,3.01172c-0.33237,-0.03525 -0.69364,0.01666 -1.05664,0.16016c-0.45,0.177 -7.50122,3.14316 -14.07422,5.91016l-2.17188,0.91406c-0.841,0.341 -1.26562,0.89558 -1.26562,1.64258c0,0.523 0.22134,1.23239 1.27734,1.65039l3.66602,1.46875c0.317,0.951 1.05328,3.15909 1.23828,3.74609c0.11,0.348 0.38784,1.22469 1.08984,1.42969c0.144,0.049 0.29427,0.07422 0.44727,0.07422c0.443,0 0.76197,-0.20617 0.91797,-0.32617l2.33008,-1.9707l2.83008,2.61719c0.109,0.111 0.68594,0.67188 1.46094,0.67188c0.967,0 1.70051,-0.80498 1.85352,-1.58398c0.083,-0.427 2.8125,-14.12895 2.8125,-14.12695c0.245,-1.099 -0.19552,-1.66911 -0.47852,-1.91211c-0.2425,-0.2075 -0.54458,-0.32998 -0.87695,-0.36523zM19.91016,5.17188c-0.377,1.89 -2.43214,12.20636 -2.74414,13.69336l-4.13672,-3.82617l-2.80664,2.37695l0.77734,-3.04102c0,0 5.36255,-5.42814 5.68555,-5.74414c0.26,-0.253 0.31445,-0.34169 0.31445,-0.42969c0,-0.117 -0.06022,-0.20117 -0.19922,-0.20117c-0.125,0 -0.29477,0.11978 -0.38477,0.17578c-1.14335,0.71282 -6.01192,3.48646 -8.4082,4.84961l-3.47656,-1.38867l1.6875,-0.70899c4.299,-1.81 11.95541,-5.03386 13.69141,-5.75586z"></path></g></g>
</svg>